#!OML:ASF X:\für Bonn\!DataBase\2005_08_12_Daniel\c3d\Daniel.ASF
:FULLY-SPECIFIED
:DEGREES
32
root 4.02919 16.8751 0.284031 -442.624 -90.0237 435.749
lowerback 20.2653 -1.78233 4.92253
upperback 6.16398 -1.89586 -2.21367
thorax -4.84433 -1.09801 -4.7188
lowerneck -7.86597 3.57593 2.62427
upperneck -8.09324 3.99824 -7.50147
head -0.993388 1.85701 -2.77912
rclavicle 1.10325e-014 1.19271e-015
rhumerus -40.2906 14.953 -101.696
rradius 66.8274
rwrist 14.9545
rhand -14.55 366.336
rfingers 7.12502
rthumb 11.5988 -23.3234
lclavicle 1.10325e-014 1.19271e-015
lhumerus -219.192 192.487 -82.2451
lradius 77.2895
lwrist 13.0206
lhand -18.9319 7.47329
lfingers 7.12502
lthumb 7.3709 37.3249
rfemur -2.72613 20.2932 24.3671
rtibia 34.4097
rfoot -43.1002 -19.1434
rtoes -9.37431
lfemur -202.044 192.286 -193.034
ltibia 44.8943
lfoot 342.376 3.89275
ltoes -0.022916
33
root 4.03104 16.8785 0.300323 -445.437 -90.0778 438.657
lowerback 20.5003 -1.84668 4.95943
upperback 6.21001 -1.96813 -2.19909
thorax -4.92488 -1.13736 -4.70341
lowerneck -8.02103 3.57236 2.531
upperneck -8.1387 3.99719 -7.35682
head -0.987066 1.85415 -2.7112
rclavicle -1.88845e-015 -5.1684e-015
rhumerus -40.411 14.3392 -101.348
rradius 67.0475
rwrist 15.5441
rhand -14.5459 366.23
rfingers 7.12502
rthumb 11.6027 -23.4286
lclavicle -1.88845e-015 -5.1684e-015
lhumerus -219.04 192.431 -82.3259
lradius 76.9381
lwrist 13.5281
lhand -19.2508 7.74605
lfingers 7.12502
lthumb 7.06303 37.6082
rfemur -2.81809 20.3072 24.3152
rtibia 34.3507
rfoot -42.9702 -19.1873
rtoes -9.56135
lfemur -202.07 192.336 -193.036
ltibia 44.7843
lfoot 342.198 3.96884
ltoes -0.0765754
34
root 4.03377 16.881 0.316399 -448.706 -90.1188 442.011
lowerback 20.7833 -1.90566 4.98534
upperback 6.24352 -2.03391 -2.19963
thorax -5.04309 -1.17464 -4.69854
lowerneck -8.05328 3.54619 2.49308
upperneck -8.26174 3.95779 -7.24932
head -1.02636 1.83422 -2.67065
rclavicle -6.16232e-015 -7.55382e-015
rhumerus -40.5757 13.6999 -101.014
rradius 67.2882
rwrist 16.0433
rhand -14.6055 366.117
rfingers 7.12502
rthumb 11.5452 -23.5454
lclavicle -6.16232e-015 -7.55382e-015
lhumerus -218.909 192.394 -82.4144
lradius 76.5655
lwrist 13.9828
lhand -19.5743 7.91978
lfingers 7.12502
lthumb 6.75079 37.7922
rfemur -2.90244 20.3035 24.2552
rtibia 34.2878
rfoot -42.8263 -19.2588
rtoes -9.76634
lfemur -202.096 192.351 -193.054
ltibia 44.6772
lfoot 342.037 4.05255
ltoes -0.181428
35
root 4.03593 16.884 0.334241 -455.878 -90.155 449.299
lowerback 21.0286 -1.96525 5.01961
upperback 6.27766 -2.09896 -2.18998
thorax -5.14063 -1.21075 -4.68772
lowerneck -8.06659 3.50444 2.37766
upperneck -8.38382 3.90527 -7.10022
head -1.07156 1.81013 -2.60283
rclavicle -3.57812e-015 -3.18055e-015
rhumerus -40.7286 13.0483 -100.661
rradius 67.4785
rwrist 16.5501
rhand -14.7305 365.994
rfingers 7.12502
rthumb 11.4247 -23.6744
lclavicle -3.57812e-015 -3.18055e-015
lhumerus -218.744 192.341 -82.4571
lradius 76.1469
lwrist 14.3782
lhand -19.8724 8.09605
lfingers 7.12502
lthumb 6.46304 37.9774
rfemur -3.01568 20.3372 24.176
rtibia 34.2241
rfoot -42.6919 -19.3034
rtoes -9.89412
lfemur -202.157 192.386 -193.075
ltibia 44.5698
lfoot 341.869 4.10847
ltoes -0.170168
36
root 4.03771 16.8871 0.352193 -450.327 -90.1768 443.852
lowerback 21.2895 -2.01167 5.04262
upperback 6.32423 -2.15127 -2.20121
thorax -5.23138 -1.24071 -4.69597
lowerneck -8.03257 3.45874 2.24813
upperneck -8.55863 3.84722 -6.92116
head -1.1426 1.78482 -2.52462
rclavicle -7.05686e-015 -2.38542e-015
rhumerus -40.9006 12.4493 -100.329
rradius 67.6993
rwrist 16.9202
rhand -14.8947 365.865
rfingers 7.12502
rthumb 11.2663 -23.8122
lclavicle -7.05686e-015 -2.38542e-015
lhumerus -218.571 192.338 -82.5304
lradius 75.7049
lwrist 14.7608
lhand -20.2009 8.23146
lfingers 7.12502
lthumb 6.14585 38.1223
rfemur -3.11764 20.3544 24.0815
rtibia 34.1622
rfoot -42.5251 -19.3529
rtoes -10.0736
lfemur -202.197 192.337 -193.119
ltibia 44.4625
lfoot 341.73 4.1609
ltoes -0.228972
37
root 4.0393 16.8907 0.371192 -455.164 -90.1955 448.813
lowerback 21.5552 -2.06921 5.07089
upperback 6.34906 -2.21405 -2.20479
thorax -5.34919 -1.27622 -4.69555
lowerneck -7.95831 3.40488 2.08171
upperneck -8.73935 3.78175 -6.73572
head -1.22317 1.75773 -2.43898
rclavicle -2.33572e-014 -1.55052e-014
rhumerus -41.1374 11.8559 -100.005
rradius 67.9259
rwrist 17.2719
rhand -15.0624 365.766
rfingers 7.12502
rthumb 11.1045 -23.9198
lclavicle -2.33572e-014 -1.55052e-014
lhumerus -218.421 192.294 -82.5667
lradius 75.2446
lwrist 15.0536
lhand -20.4779 8.36846
lfingers 7.12502
lthumb 5.87848 38.2669
rfemur -3.26144 20.2472 23.9376
rtibia 34.1037
rfoot -42.272 -19.3775
rtoes -10.3069
lfemur -202.267 192.309 -193.173
ltibia 44.3515
lfoot 341.63 4.21642
ltoes -0.195536
38
root 4.04101 16.8945 0.3898 -462.019 -90.1897 455.792
lowerback 21.8529 -2.12677 5.04408
upperback 6.35643 -2.28598 -2.20893
thorax -5.50196 -1.31691 -4.66041
lowerneck -7.84655 3.35838 1.91948
upperneck -8.94185 3.72519 -6.55287
head -1.31619 1.7358 -2.35625
rclavicle 1.36167e-014 1.98785e-015
rhumerus -41.4305 11.2766 -99.7065
rradius 68.1431
rwrist 17.5813
rhand -15.2314 365.762
rfingers 7.12502
rthumb 10.9416 -23.9333
lclavicle 1.36167e-014 1.98785e-015
lhumerus -218.298 192.222 -82.6062
lradius 74.7701
lwrist 15.3539
lhand -20.7558 8.43041
lfingers 7.12502
lthumb 5.61014 38.3361
rfemur -3.3923 20.2442 23.7925
rtibia 34.0496
rfoot -42.1259 -19.3854
rtoes -10.3663
lfemur -202.341 192.272 -193.248
ltibia 44.2408
lfoot 341.574 4.26218
ltoes -0.22506
39
root 4.04172 16.8988 0.409708 -467.64 -90.1809 461.568
lowerback 22.0893 -2.16717 5.0089
upperback 6.38786 -2.34199 -2.21843
thorax -5.59477 -1.34804 -4.63148
lowerneck -7.81747 3.30147 1.83701
upperneck -9.09214 3.64925 -6.41905
head -1.37681 1.69983 -2.30204
rclavicle 9.34288e-015 -1.19271e-014
rhumerus -41.6968 10.7417 -99.4114
rradius 68.3726
rwrist 17.7425
rhand -15.3299 365.795
rfingers 7.12502
rthumb 10.8466 -23.9054
lclavicle 9.34288e-015 -1.19271e-014
lhumerus -218.131 192.187 -82.6431
lradius 74.2889
lwrist 15.6397
lhand -21.0042 8.49203
lfingers 7.12502
lthumb 5.3703 38.404
rfemur -3.56438 20.2213 23.6231
rtibia 34.0054
rfoot -41.9105 -19.4525
rtoes -10.4281
lfemur -202.447 192.218 -193.328
ltibia 44.1278
lfoot 341.519 4.27898
ltoes -0.226363
